Coordinates
version=1
nRows=4
nColumns=107
inDegrees=yes

Units are S.I. units (second, meters, Newtons, ...)
If the header above contains a line with 'inDegrees', this indicates whether rotational values are in degrees (yes) or radians (no).

endheader
time	sternoclavicular_r2	sternoclavicular_r3	unrotscap_r3	unrotscap_r2	acromioclavicular_r2	acromioclavicular_r3	acromioclavicular_r1	unrothum_r1	unrothum_r3	unrothum_r2	elv_angle	shoulder_elv	shoulder1_r2	shoulder_rot	elbow_flexion	pro_sup	deviation	flexion	proximal_distal_r1	proximal_distal_r3	cmc_flexion	cmc_abduction	mp_flexion	ip_flexion	mcp2_flexion	mcp2_abduction	pm2_flexion	md2_flexion	mcp3_flexion	mcp3_abduction	pm3_flexion	md3_flexion	mcp4_flexion	mcp4_abduction	pm4_flexion	md4_flexion	mcp5_flexion	mcp5_abduction	pm5_flexion	md5_flexion	bicpt_tx	bicpt_ty	bicpt_tz	bicpt2_tx	bicpt2_ty	bicpt2_tz	ptpt_tx	ptpt_ty	ptpt_tz	FCUpt_tx	FCUpt_ty	FCUpt_tz	EDCpt_tx	EDCpt_ty	EDCpt_tz	APLpt_tx	APLpt_ty	APLpt_tz	FPLpt_tx	FPLpt_ty	FPLpt_tz	FPLpt2_tx	FPLpt2_ty	FPLpt2_tz	PEC1pt2_tx	PEC1pt2_ty	PEC1pt2_tz	PEC1pt3_tx	PEC1pt3_ty	PEC1pt3_tz	PEC2pt2_tx	PEC2pt2_ty	PEC2pt2_tz	PEC2pt3_tx	PEC2pt3_ty	PEC2pt3_tz	PEC3pt2_tx	PEC3pt2_ty	PEC3pt2_tz	PEC3pt3_tx	PEC3pt3_ty	PEC3pt3_tz	DELT2pt2a_tx	DELT2pt2a_ty	DELT2pt2a_tz	DELT2pt2_tx	DELT2pt2_ty	DELT2pt2_tz	LAT1pt2_tx	LAT1pt2_ty	LAT1pt2_tz	LAT1pt3_tx	LAT1pt3_ty	LAT1pt3_tz	LAT2pt2_tx	LAT2pt2_ty	LAT2pt2_tz	LAT2pt3_tx	LAT2pt3_ty	LAT2pt3_tz	LAT3pt2_tx	LAT3pt2_ty	LAT3pt2_tz	LAT3pt3_tx	LAT3pt3_ty	LAT3pt3_tz
      0.46666667	     -0.32083710	      0.13589145	     -0.13589145	      0.32083710	     -0.06496299	      0.52500801	      0.23598749	     -0.23598749	     -0.52500801	      0.06496299	     97.87596151	     75.96103564	     -1.70825779	    -23.04718518	     30.30210579	     36.04116272	      0.18672592	     -0.82180842	      0.22487502	     -0.41090421	     11.48050471	     -0.70891170	    -42.44236715	    -65.64610489	     85.45134986	     13.35662146	     84.15626059	     80.71581644	     86.83365942	      5.10250400	     82.54330904	     41.79454460	     84.08208672	    -12.54312735	     82.62723593	     83.07391410	     96.05376370	    -14.12627945	     91.74049936	      5.49396398	      0.00090230	     -0.03107308	     -0.00485942	      0.01654911	     -0.01843172	     -0.00788167	      0.00488696	     -0.06662196	     -0.00295331	      0.00738408	     -0.18357520	     -0.00035242	     -0.00432493	      0.00122162	      0.00017060	      0.00027524	      0.00011009	      0.00055047	      0.00035230	      0.00105691	      0.00059451	      0.00003057	     -0.00021381	     -0.00025657	      0.00248984	      0.00873553	      0.00607689	     -0.00814472	      0.01966548	     -0.01865267	      0.00248984	      0.00873553	      0.00607689	      0.00054861	      0.01823066	     -0.00957954	      0.00394014	      0.00485772	      0.01594853	      0.00000000	      0.00771640	      0.00000000	     -0.00713190	     -0.03295868	     -0.00636217	      0.01547255	     -0.00052732	     -0.00442761	     -0.00088621	      0.01485462	     -0.00607689	      0.00244764	      0.02143791	     -0.01772426	     -0.00595029	      0.01287119	     -0.00544388	     -0.01240698	      0.02717719	     -0.03042664	     -0.02329474	      0.01439041	     -0.00730071	     -0.01544542	      0.03139725	     -0.03802275
      0.50000000	     -0.32385369	      0.13716914	     -0.13716914	      0.32385369	     -0.06557378	      0.52994426	      0.23820630	     -0.23820630	     -0.52994426	      0.06557378	     97.20826029	     76.67524011	     -1.69660420	    -19.63576603	     30.27639329	     32.67639804	      0.20988034	     -0.80112090	      0.24878235	     -0.40056045	     11.26549024	     -0.34304114	    -42.38808427	    -65.33261492	     85.12868766	     13.35547293	     84.40128374	     78.84897470	     86.58113519	      5.03349905	     82.98987740	     40.29149056	     84.05620677	    -12.54595012	     82.58250894	     83.54694956	     95.85921904	    -14.13297018	     91.85315351	      5.52177829	      0.00090145	     -0.03107014	     -0.00485895	      0.01649946	     -0.01842473	     -0.00821429	      0.00513558	     -0.06646120	     -0.00268226	      0.00705117	     -0.18363981	     -0.00031426	     -0.00392116	      0.00109059	      0.00018448	      0.00028219	      0.00011287	      0.00056437	      0.00036120	      0.00108360	      0.00060952	      0.00003091	     -0.00021114	     -0.00025336	      0.00251325	      0.00881766	      0.00613402	     -0.00822130	      0.01985038	     -0.01882805	      0.00251325	      0.00881766	      0.00613402	      0.00055377	      0.01840207	     -0.00966961	      0.00396713	      0.00490339	      0.01601437	      0.00000000	      0.00786322	      0.00000000	     -0.00719896	     -0.03326856	     -0.00648405	      0.01356521	     -0.00042078	     -0.00317277	     -0.00089455	      0.01499428	     -0.00613402	      0.00247065	      0.02163947	     -0.01789090	     -0.00600623	      0.01299220	     -0.00549506	     -0.01252363	      0.02743272	     -0.03071272	     -0.02351376	      0.01452571	     -0.00736935	     -0.01559065	      0.03169246	     -0.03838025
      0.53333333	     -0.32176176	      0.13628310	     -0.13628310	      0.32176176	     -0.06515021	      0.52652110	      0.23666761	     -0.23666761	     -0.52652110	      0.06515021	     97.64643192	     76.17995778	     -1.70425174	    -21.91818832	     30.30486631	     34.63004802	      0.19495669	     -0.81487547	      0.23347386	     -0.40743773	     11.31869154	     -0.55117128	    -42.38372706	    -65.41501335	     85.27195596	     13.33821148	     84.29334530	     80.84991163	     86.53745036	      5.11280154	     82.86811159	     41.62049868	     83.84357498	    -12.55451405	     83.01045770	     82.99408868	     95.88219084	    -14.13070319	     92.15308792	      5.51030388	      0.00090239	     -0.03107340	     -0.00485947	      0.01653139	     -0.01843247	     -0.00802306	      0.00499123	     -0.06655454	     -0.00283964	      0.00724405	     -0.18360268	     -0.00033744	     -0.00415560	      0.00116625	      0.00017716	      0.00027765	      0.00011106	      0.00055529	      0.00035539	      0.00106616	      0.00059971	      0.00003083	     -0.00021179	     -0.00025415	      0.00249701	      0.00876070	      0.00609440	     -0.00816819	      0.01972216	     -0.01870643	      0.00249701	      0.00876070	      0.00609440	      0.00055019	      0.01828321	     -0.00960715	      0.00394843	      0.00487172	      0.01596884	      0.00000000	      0.00776125	      0.00000000	     -0.00715246	     -0.03305367	     -0.00639941	      0.01485854	     -0.00049157	     -0.00399270	     -0.00088877	      0.01489743	     -0.00609440	      0.00245469	      0.02149970	     -0.01777534	     -0.00596744	      0.01290828	     -0.00545957	     -0.01244274	      0.02725552	     -0.03051433	     -0.02336187	      0.01443188	     -0.00732175	     -0.01548994	      0.03148774	     -0.03813233
      0.56666667	     -0.31913645	      0.13517114	     -0.13517114	      0.31913645	     -0.06461864	      0.52222511	      0.23473659	     -0.23473659	     -0.52222511	      0.06461864	     98.19903912	     75.55839013	     -1.71389655	    -24.89124157	     30.48250546	     37.27939664	      0.18333955	     -0.81086846	      0.22130509	     -0.40543423	     11.33717392	     -0.62056267	    -42.33070318	    -65.47924793	     85.18326083	     13.35771783	     84.23192764	     80.56038019	     86.54629759	      5.12649938	     82.62240995	     41.68043503	     83.88852337	    -12.55551867	     83.07607874	     83.63264964	     95.76890351	    -14.13379693	     92.41549012	      5.52763170	      0.00090827	     -0.03109376	     -0.00486275	      0.01656088	     -0.01848072	     -0.00775528	      0.00479547	     -0.06668112	     -0.00305306	      0.00750747	     -0.18355061	     -0.00036433	     -0.00447352	      0.00127071	      0.00016395	      0.00027901	      0.00011160	      0.00055802	      0.00035713	      0.00107139	      0.00060266	      0.00003080	     -0.00021203	     -0.00025443	      0.00247664	      0.00868922	      0.00604468	     -0.00810155	      0.01956124	     -0.01855380	      0.00247664	      0.00868922	      0.00604468	      0.00054570	      0.01813403	     -0.00952876	      0.00392483	      0.00483197	      0.01591088	      0.00000000	      0.00763425	      0.00000000	     -0.00709410	     -0.03278397	     -0.00629396	      0.01643877	     -0.00058670	     -0.00517801	     -0.00088152	      0.01477588	     -0.00604468	      0.00243466	      0.02132427	     -0.01763031	     -0.00591875	      0.01280296	     -0.00541502	     -0.01234121	      0.02703314	     -0.03026536	     -0.02317126	      0.01431413	     -0.00726201	     -0.01536355	      0.03123083	     -0.03782120
